<?xml version="1.0" encoding="UTF-8" standalone="no"?><!-- Generator: Gravit.io --><svg xmlns="http://www.w3.org/2000/svg" xmlns:xlink="http://www.w3.org/1999/xlink" style="isolation:isolate" viewBox="0 0 1000 1000" width="1000pt" height="1000pt"><defs><clipPath id="_clipPath_eM5hmq9Y0cWaxnc1hGZYWWZ8h019tL2t"><rect width="1000" height="1000"/></clipPath></defs><g clip-path="url(#_clipPath_eM5hmq9Y0cWaxnc1hGZYWWZ8h019tL2t)"><clipPath id="_clipPath_JkQH2FErSLz3yLqsw81WS8TyL0WEH5Tx"><rect x="0" y="0" width="1000" height="1000" transform="matrix(1,0,0,1,0,0)" fill="rgb(255,255,255)"/></clipPath><g clip-path="url(#_clipPath_JkQH2FErSLz3yLqsw81WS8TyL0WEH5Tx)"><g><g><path d=" M 900.985 305.711 C 928.794 344.546 983.74 331.3 982.916 371.002 C 982.063 411.95 990.155 457.684 961.73 452.763 C 925.469 446.479 903.543 452.131 883.172 474.433 C 844.921 516.294 864.838 723.12 755.808 696.772 C 645.262 942.479 514.241 758.127 491.529 648.23 C 452.179 457.801 389.9 323.237 334.328 226.225 C 334.328 226.225 323.972 200.429 313.047 208.121 C 299.801 217.449 273.896 301.205 273.896 263.083 C 273.896 255.76 283.324 205.015 294.628 161.494 C 307.751 110.948 313.938 68.997 347.84 126.921 C 448.996 299.733 460.062 404.7 505.552 555.887 C 593.907 849.549 705.287 669.702 705.287 669.702 C 628.624 631.12 619.727 548.077 619.727 548.077 C 716.562 570.795 742.59 495.038 745.414 489.35 C 773.148 433.585 771.281 599.183 771.281 599.183 C 847.688 600.429 838.563 400.357 878.633 376.113 C 885.342 331.797 882.281 279.589 900.985 305.711 Z " fill="rgb(51,51,51)"/><path d=" M 545.907 243.417 C 468.448 241.846 380.102 323.914 343.5 400.221 C 286.688 518.641 309.845 574.695 320.22 545.115 C 334.309 514.768 351.507 477.883 379.619 442.144 C 407.732 406.415 437.768 368.004 471.082 354.822 C 495.31 345.232 568.779 324.23 592.628 370.424 C 610.622 405.269 612.09 439.363 561.929 539.382 C 529.847 603.355 519.85 669.747 397.271 774.994 C 223.47 924.213 16.639 940.827 16.639 940.827 C 16.639 940.827 133.4 940.818 238.564 893.396 C 342.486 846.515 387.692 831.346 454.264 806.118 C 509.096 778.181 549.072 687.517 578.918 625.892 C 615.321 550.768 654.254 286.867 587.417 253.467 C 574.218 246.866 560.252 243.706 545.907 243.417 Z " fill="rgb(51,51,51)"/><path d=" M 454.643 59.173 L 520.021 69.44 C 522.352 89.99 515.359 129.015 490.894 171.661 C 483.523 184.501 480.093 164.763 480.093 164.763 C 480.093 164.763 459.608 169.882 421.272 161.25 C 420.76 114.55 454.643 59.173 454.643 59.173 Z " fill="rgb(51,51,51)"/><path d=" M 807.39 330.171 C 794.561 378.081 703.572 491.228 692.259 504.465 C 686.621 508.745 678.757 507.436 690.288 491.309 C 717.614 453.079 786.024 377.097 782.357 329.864 C 782.357 329.864 770.229 329.368 750.739 329.729 C 750.739 329.729 749.82 289.928 772.191 278.108 C 808.319 259.02 809.882 296.257 809.096 307.291 C 809.096 307.291 830.68 306.903 838.004 308.338 C 842.988 309.323 836.659 330.28 830.301 330.758 C 824.9 331.165 807.39 330.171 807.39 330.171 Z " fill="rgb(51,51,51)"/><path d=" M 926.416 551.02 C 908.518 586.506 910.242 586.659 924.777 589.287 C 939.302 591.905 936.403 587.174 942.685 574.452 C 948.967 561.729 956.13 552.104 941.302 550.307 C 928.614 548.772 928.112 546.903 926.416 551.02 Z " fill="rgb(51,51,51)"/><path d=" M 493.964 813.296 C 490.146 830.371 483.76 833.35 499.82 834.732 C 515.605 836.095 514.554 835.68 519.936 820.881 C 525.308 806.082 532.272 797.739 517.14 796.222 C 502.018 794.705 497.934 795.581 493.964 813.296 Z " fill="rgb(51,51,51)"/><path d=" M 315.227 615.562 C 325.526 575.779 350.682 564.339 362.687 559.978 C 374.702 555.616 387.853 561.612 411.863 547.996 C 435.882 534.37 434.736 537.639 429.022 556.709 C 423.299 575.779 427.876 595.941 418.154 625.368 C 408.433 654.795 385.626 692.565 355.666 714.976 C 326.436 736.845 316.941 746.885 307.22 749.603 C 297.508 752.33 298.077 744.158 324.948 721.269 C 351.829 698.389 367.264 684.763 379.269 667.328 C 391.283 649.892 398.143 612.835 398.711 597.034 C 398.711 597.034 356.974 613.928 340.392 635.174 C 323.811 656.429 316.941 668.411 310.082 673.865 C 303.222 679.31 304.937 655.337 315.227 615.562 Z " fill="rgb(51,51,51)"/><path d=" M 568.685 157.133 C 575.147 156.735 586.811 158.108 593.434 164.429 C 600.066 170.74 606.206 177.765 606.718 190.108 C 607.239 202.451 605.429 220.221 603.875 230.099 C 602.321 239.968 602.056 238 600.767 249.106 C 599.469 260.212 604.141 261.413 607.239 246.632 C 608.528 240.474 610.385 228.97 611.465 223.535 C 613.227 214.632 614.487 204.085 614.487 191.101 C 614.487 171.842 614.487 167.652 613.199 153.331 C 611.901 139.02 609.57 136.546 602.056 126.424 C 594.542 116.311 583.153 113.837 578.747 111.616 C 576.217 110.352 570.873 108.835 570.618 120.726 C 570.352 132.69 568.988 135.164 568.685 157.133 Z " fill="rgb(51,51,51)"/><path d=" M 679.268 136.176 C 673.024 134.243 664.194 123.607 659.428 143.688 C 654.662 163.778 651.904 171.426 664.449 175.733 C 676.994 180.04 677.203 175.995 679.714 160.69 C 682.225 145.386 685.513 138.099 679.268 136.176 Z " fill="rgb(51,51,51)"/><path d=" M 690.781 224.104 C 677.961 251.264 665.804 269.503 650.891 294.37 C 644.476 305.079 640.8 310.632 637.36 316.411 C 629.193 330.135 635.351 335.363 650.18 314.388 C 671.556 284.185 675.374 272.474 682.859 260.934 C 690.335 249.395 698.929 228.826 703.468 218.18 C 708.395 206.605 709.304 204.085 710.375 197.973 C 711.446 191.86 705.344 193.539 700.635 203.101 C 696.532 211.435 703.61 196.952 690.781 224.104 Z " fill="rgb(51,51,51)"/><path d=" M 693.036 360.853 C 692.448 368.338 691.235 376.645 691.235 383.3 C 691.235 389.964 690.44 393.196 697.025 394.144 C 703.61 395.092 710.498 395.887 712.194 395.86 C 716.07 395.797 718.988 395.86 719.585 390.533 C 720.182 385.205 722.579 354.957 722.181 359.905 C 721.783 364.844 722.228 354.442 719.32 354.144 C 715.397 353.747 706.092 353.332 702.056 352.365 C 698.01 351.399 693.765 351.427 693.036 360.853 Z " fill="rgb(51,51,51)"/><path d=" M 541.605 398.885 C 539.824 404.971 537.294 420.131 537.294 425.747 C 537.294 431.372 538.583 432.88 544.201 433.151 C 549.81 433.422 554.027 435.219 555.088 428.492 C 556.178 421.549 557.362 406.551 558.063 400.573 C 558.49 396.934 559.882 395.743 552.283 394.271 C 544.675 392.808 543.86 391.21 541.605 398.885 Z " fill="rgb(51,51,51)"/><path d=" M 303.724 309.964 C 302.284 315.724 298.967 329.458 297.821 336.727 C 296.665 344.004 299.839 345.648 306.168 346.063 C 312.507 346.478 316.108 347.02 319.708 347.851 C 323.309 348.673 326.341 347.571 327.781 341.675 C 329.221 335.77 329.667 325.386 330.226 321.494 C 330.851 317.169 332.405 305.584 325.204 304.754 C 318.003 303.932 314.639 303.634 311.181 303.634 C 307.722 303.634 305.164 304.203 303.724 309.964 Z " fill="rgb(51,51,51)"/><path d=" M 401.241 465.097 C 399.308 465.404 397.404 471.535 393.727 480.131 C 390.051 488.727 386.043 501.819 386.744 504.483 C 387.446 507.138 399.176 507.689 401.308 506.641 C 402.862 505.865 405.429 496.456 408.594 487.02 C 411.815 477.44 414.582 469.368 414.582 468.808 C 414.582 468.239 407.239 464.14 401.241 465.097 Z " fill="rgb(51,51,51)"/></g></g></g></g></svg>